{"title":"The Grey 2012 RC 1080P BRRIP x264 AC3 - HOPE","uid":7083608,"size":4311739418,"categoryP":"video","categoryS":"hd___movies","magnet":"?xt=urn:btih:d47c119ba5da1587eaaef4e0bc3b5afce3d7afad&amp;dn=The+Grey+2012+RC+1080P+BRRIP+x264+AC3+-+HOPE&amp;tr=udp%3A%2F%2Ftracker.openbittorrent.com%3A80&amp;tr=udp%3A%2F%2Fopen.demonii.com%3A1337&amp;tr=udp%3A%2F%2Ftracker.coppersurfer.tk%3A6969&amp;tr=udp%3A%2F%2Fexodus.desync.com%3A6969","seeders":0,"leechers":1,"uploader":"MisterNobody","files":-1,"time":1331115562,"description":"Information:\nFormat                           : Matroska\nFormat version                   : Version 2\nFile size                        : 4.00 GiB\nDuration                         : 1h 57mn\nOverall bit rate                 : 4 885 Kbps\nEncoded date                     : UTC 2012-03-06 11:49:55\nWriting application              : mkvmerge v5.3.0 ('I could have danced') built on Feb  9 2012 10:38:07\nWriting library                  : libebml v1.2.3 + libmatroska v1.3.0\n\nVideo\nID                               : 1\nFormat                           : AVC\nFormat/Info                      : Advanced Video Codec\nFormat profile                   : &lt;a class=&quot;__cf_email__&quot; href=&quot;/cdn-cgi/l/email-protection&quot; data-cfemail=&quot;571f3e303f171b627966&quot;&gt;[email&amp;#160;protected]&lt;/a&gt;&lt;script cf-hash='f9e31' type=&quot;text/javascript&quot;&gt;\n/* &lt;![CDATA[ */!function(){try{var t=&quot;currentScript&quot;in document?document.currentScript:function(){for(var t=document.getElementsByTagName(&quot;script&quot;),e=t.length;e--;)if(t[e].getAttribute(&quot;cf-hash&quot;))return t[e]}();if(t&amp;&amp;t.previousSibling){var e,r,n,i,c=t.previousSibling,a=c.getAttribute(&quot;data-cfemail&quot;);if(a){for(e=&quot;&quot;,r=parseInt(a.substr(0,2),16),n=2;a.length-n;n+=2)i=parseInt(a.substr(n,2),16)^r,e+=String.fromCharCode(i);e=document.createTextNode(e),c.parentNode.replaceChild(e,c)}}}catch(u){}}();/* ]]&gt; */&lt;/script&gt;\nFormat settings, CABAC           : Yes\nFormat settings, ReFrames        : 6 frames\nCodec ID                         : V_MPEG4/ISO/AVC\nDuration                         : 1h 57mn\nBit rate                         : 4 694 Kbps\nWidth                            : 1 920 pixels\nHeight                           : 816 pixels\nDisplay aspect ratio             : 2.35:1\nFrame rate                       : 23.976 fps\nColor space                      : YUV\nChroma subsampling               : 4:2:0\nBit depth                        : 8 bits\nScan type                        : Progressive\nBits/(Pixel*Frame)               : 0.125\nStream size                      : 3.76 GiB (94%)\nWriting library                  : x264 core 120 r2164 da19765\n\nAudio\nID                               : 2\nFormat                           : AC-3\nFormat/Info                      : Audio Coding 3\nMode extension                   : CM (complete main)\nCodec ID                         : A_AC3\nDuration                         : 1h 57mn\nBit rate mode                    : Constant\nBit rate                         : 192 Kbps\nChannel(s)                       : 2 channels\nChannel positions                : Front: L R\nSampling rate                    : 48.0 KHz\nBit depth                        : 16 bits\nCompression mode                 : Lossy\nStream size                      : 161 MiB (4%)","torrent":{"xt":"urn:btih:d47c119ba5da1587eaaef4e0bc3b5afce3d7afad","amp;dn":"The+Grey+2012+RC+1080P+BRRIP+x264+AC3+-+HOPE","amp;tr":["udp%3A%2F%2Ftracker.openbittorrent.com%3A80","udp%3A%2F%2Fopen.demonii.com%3A1337","udp%3A%2F%2Ftracker.coppersurfer.tk%3A6969","udp%3A%2F%2Fexodus.desync.com%3A6969"],"infoHash":"d47c119ba5da1587eaaef4e0bc3b5afce3d7afad","infoHashBuffer":{"type":"Buffer","data":[212,124,17,155,165,218,21,135,234,174,244,224,188,59,90,252,227,215,175,173]},"announce":[],"urlList":[]}}